<svg width="107" height="34" fill="none" xmlns="http://www.w3.org/2000/svg"><path d="M50.205 10.756v2.14h-4.183v11.468H43.53V12.896h-4.183v-2.14h10.859ZM50.33 19.278c0-.903.132-1.695.394-2.376.274-.68.634-1.244 1.08-1.689a4.254 4.254 0 0 1 1.531-1.021 4.627 4.627 0 0 1 1.767-.354c1.414 0 2.514.44 3.3 1.316.798.877 1.197 2.186 1.197 3.927 0 .131-.006.282-.02.452 0 .157-.006.301-.02.432h-6.774c.066.825.354 1.466.864 1.924.524.445 1.277.668 2.258.668.577 0 1.1-.052 1.571-.157.485-.105.864-.216 1.14-.334l.313 1.944c-.13.066-.314.138-.55.216a7.188 7.188 0 0 1-.785.177 9.09 9.09 0 0 1-1.983.216c-.903 0-1.689-.131-2.356-.393-.668-.275-1.218-.648-1.65-1.12a4.695 4.695 0 0 1-.962-1.688 6.988 6.988 0 0 1-.314-2.14Zm6.893-1.06c0-.328-.046-.636-.137-.924a2.053 2.053 0 0 0-.413-.765 1.659 1.659 0 0 0-.648-.51c-.248-.132-.55-.197-.903-.197-.367 0-.687.072-.962.216-.275.13-.51.307-.707.53a2.579 2.579 0 0 0-.432.766 4.151 4.151 0 0 0-.216.883h4.418ZM64.69 22.655c.629 0 1.087-.072 1.375-.216.288-.157.432-.419.432-.785 0-.34-.157-.622-.471-.845-.301-.222-.805-.464-1.512-.726a15.12 15.12 0 0 1-1.198-.491 4.398 4.398 0 0 1-.923-.628 2.688 2.688 0 0 1-.628-.845c-.144-.34-.216-.753-.216-1.237 0-.942.347-1.682 1.04-2.219.694-.55 1.637-.825 2.828-.825a8.23 8.23 0 0 1 1.728.177c.55.105.962.21 1.237.314l-.432 1.925a5.357 5.357 0 0 0-1.001-.314 5.69 5.69 0 0 0-1.414-.157c-.484 0-.877.085-1.178.255a.786.786 0 0 0-.452.746c0 .17.026.32.079.452.065.13.17.255.314.373.144.104.334.216.57.333.235.105.523.216.863.334.563.21 1.041.42 1.434.629.393.196.713.425.962.687.262.249.452.537.57.864.117.327.176.72.176 1.178 0 .982-.366 1.728-1.1 2.239-.72.497-1.754.746-3.102.746-.903 0-1.63-.079-2.18-.236-.55-.144-.936-.262-1.158-.353l.412-1.983c.354.143.773.281 1.257.412.497.13 1.06.196 1.689.196ZM70.975 11.384l2.376-.393v3.103h3.652v1.983h-3.652v4.183c0 .824.13 1.413.393 1.767.261.353.707.53 1.335.53.432 0 .812-.046 1.139-.137.34-.092.609-.177.805-.256l.393 1.885a8.048 8.048 0 0 1-1.08.354c-.445.13-.97.196-1.571.196-.733 0-1.349-.098-1.846-.294a2.75 2.75 0 0 1-1.159-.845 3.47 3.47 0 0 1-.608-1.355 8.557 8.557 0 0 1-.177-1.826v-8.895ZM81.696 24.364H79.32v-10.27h2.376v10.27Zm.255-13.275c0 .445-.144.799-.432 1.06a1.468 1.468 0 0 1-1.021.394c-.406 0-.753-.131-1.04-.393-.289-.262-.433-.616-.433-1.06 0-.459.144-.819.432-1.08a1.493 1.493 0 0 1 1.04-.393c.394 0 .734.13 1.022.392.288.262.432.622.432 1.08ZM84.727 14.428a15.91 15.91 0 0 1 1.787-.373 15.41 15.41 0 0 1 2.435-.177c.838 0 1.538.118 2.1.353.564.223 1.009.543 1.336.962.34.406.576.904.707 1.493a7.85 7.85 0 0 1 .216 1.904v5.774h-2.376v-5.4c0-.55-.04-1.015-.118-1.395-.065-.392-.183-.706-.353-.942a1.284 1.284 0 0 0-.668-.53c-.275-.118-.615-.177-1.02-.177-.302 0-.616.02-.944.059-.327.04-.569.072-.726.098v8.287h-2.376v-9.936ZM98.079 18.964c0 1.008.216 1.747.648 2.219.445.458 1.014.687 1.708.687.38 0 .733-.053 1.061-.157.34-.105.615-.23.824-.373v-5.322a5.317 5.317 0 0 0-.628-.098 6.223 6.223 0 0 0-.943-.059c-.864 0-1.525.288-1.983.864-.458.563-.687 1.31-.687 2.239Zm6.617 4.359c0 1.636-.419 2.834-1.256 3.593-.825.76-2.095 1.14-3.81 1.14-.628 0-1.243-.053-1.846-.158a10.31 10.31 0 0 1-1.61-.412l.432-2.023c.406.17.864.308 1.375.413a8.612 8.612 0 0 0 1.689.157c.955 0 1.636-.197 2.042-.59.405-.392.608-.975.608-1.747v-.393a6.005 6.005 0 0 1-.942.354c-.38.117-.818.176-1.316.176a5.034 5.034 0 0 1-1.806-.314 3.874 3.874 0 0 1-1.394-.923c-.38-.405-.681-.91-.904-1.512-.21-.615-.314-1.322-.314-2.12 0-.747.111-1.434.334-2.062a4.596 4.596 0 0 1 1.001-1.61 4.681 4.681 0 0 1 1.61-1.041c.629-.249 1.342-.373 2.141-.373.772 0 1.505.059 2.199.177.694.117 1.283.242 1.767.373v8.895Z" fill="#F2F2F2"/><path fill-rule="evenodd" clip-rule="evenodd" d="M25.649 4.743C19.16 5.068 13.999 10.43 13.999 17s5.161 11.932 11.65 12.257A14.931 14.931 0 0 1 17 32C8.716 32 2 25.284 2 17 2 8.716 8.716 2 17 2c3.22 0 6.204 1.015 8.649 2.743Z" fill="#FF0B53"/><path d="M36.909 17c0 5.874-4.762 10.636-10.636 10.636-5.875 0-10.637-4.762-10.637-10.636S20.398 6.364 26.273 6.364c5.874 0 10.636 4.762 10.636 10.636Z" fill="#fff"/></svg>