<svg width="30" height="30" viewBox="0 0 30 30" fill="none" xmlns="http://www.w3.org/2000/svg">
<path d="M15 27.5C8.09625 27.5 2.5 21.9037 2.5 15C2.5 8.09624 8.09625 2.49999 15 2.49999C21.9038 2.49999 27.5 8.09624 27.5 15C27.5 21.9037 21.9038 27.5 15 27.5ZM15 25C17.6522 25 20.1957 23.9464 22.0711 22.0711C23.9464 20.1957 25 17.6522 25 15C25 12.3478 23.9464 9.80429 22.0711 7.92892C20.1957 6.05356 17.6522 4.99999 15 4.99999C12.3478 4.99999 9.8043 6.05356 7.92893 7.92892C6.05357 9.80429 5 12.3478 5 15C5 17.6522 6.05357 20.1957 7.92893 22.0711C9.8043 23.9464 12.3478 25 15 25Z" fill="#09121F"/>
</svg>
